<svg width="955" height="515" viewBox="0 0 955 515" fill="none" xmlns="http://www.w3.org/2000/svg">
<g clip-path="url(#clip0_69_13)">
<path d="M449.142 353.08V357H408.57V353.08H419.056L410.824 327.6H383.678L375.348 353.08H385.344V357H363.98V353.08H370.644L394.85 278.6H418.272L442.478 353.08H449.142ZM409.55 323.68L397.202 285.852L384.952 323.68H409.55ZM453.128 362.488L461.36 370.72H477.04V282.52H469.2V278.6H506.44V282.52H499.58V365.526L490.466 374.64H459.204L450.09 365.526L453.128 362.488ZM626.373 282.52V353.08H633.233V357H594.033V353.08H603.833V283.108L584.527 357H561.497L540.231 282.716V353.08H550.031V357H527.981V353.08H535.821V282.52H527.981V278.6H562.085L582.175 348.768L600.501 278.6H633.233V282.52H626.373ZM738.954 353.08V357H698.382V353.08H708.868L700.636 327.6H673.49L665.16 353.08H675.156V357H653.792V353.08H660.456L684.662 278.6H708.084L732.29 353.08H738.954ZM699.362 323.68L687.014 285.852L674.764 323.68H699.362ZM842.214 282.52H834.374V357H807.914L770.772 282.52V353.08H778.612V357H758.522V353.08H766.362V282.52H758.522V278.6H792.822L829.964 353.08V282.52H822.124V278.6H842.214V282.52Z" fill="url(#paint0_linear_69_13)"/>
<rect x="440" y="71" width="36" height="36" rx="18" fill="#C6710E"/>
<path d="M443 92.75C443 82.3947 451.395 74 461.75 74C467.963 74 473 79.0368 473 85.25C473 95.6053 464.605 104 454.25 104C448.037 104 443 98.9632 443 92.75Z" fill="#DF9D1B"/>
<path d="M453.447 101.535C448.826 100.886 445.734 98.9366 444.171 95.6875C443.082 93.8515 442.724 91.6131 443.095 88.9724C443.837 83.6909 447.081 79.7709 452.826 77.2123C456.075 75.6493 459.515 75.1229 463.146 75.6332C467.768 76.2827 470.86 78.232 472.423 81.4811C473.511 83.3172 473.87 85.5555 473.499 88.1962C472.757 93.4777 469.513 97.3977 463.767 99.9563C460.518 101.519 457.078 102.046 453.447 101.535ZM165.836 430.711C153.292 428.948 141.662 424.284 130.944 416.719C119.849 409.437 112.331 399.461 108.389 386.789C107.012 382.219 106.341 377.412 106.377 372.368C106.366 367.654 106.686 362.987 107.335 358.365L108.1 352.919C108.472 350.278 109.15 347.849 110.135 345.631C111.073 343.743 112.863 342.985 115.503 343.356C116.494 343.495 116.942 343.895 116.85 344.555C116.571 346.536 116.128 348.493 115.519 350.427C114.581 352.315 113.949 354.414 113.625 356.725C111.491 371.909 114.818 384.158 123.608 393.472C132.067 402.739 143.558 408.394 158.082 410.435C164.024 411.27 170.223 411.468 176.681 411.029C183.138 410.59 189.335 409.61 195.271 408.088C217.319 402.098 237.26 391.941 255.094 377.617C272.551 363.576 288.494 347.135 302.924 328.293C317.353 309.452 330.673 290.117 342.885 270.29C353.405 252.919 362.442 236.517 369.997 221.085C377.552 205.653 383.557 192.864 388.012 182.719C392.797 172.62 395.755 167.145 396.884 166.294C402.908 161.754 410.443 158.437 419.489 156.343C428.582 153.918 435.604 153.053 440.555 153.749C444.516 154.306 446.357 155.575 446.079 157.555C445.708 160.196 444.037 161.307 441.066 160.89C437.435 160.38 433.995 160.906 430.746 162.469C427.543 163.702 424.931 165.523 422.909 167.932C419.336 171.805 413.954 178.959 406.765 189.394C399.907 199.874 392.133 212.078 383.443 226.004C375.13 239.647 366.771 253.619 358.365 267.922C350.006 281.894 342.304 294.781 335.26 306.582C324.694 324.284 313.206 341.352 300.799 357.785C288.014 374.501 273.693 388.983 257.834 401.228C241.929 413.803 223.989 422.895 204.015 428.503C192.096 431.877 179.369 432.613 165.836 430.711Z" fill="#DF9D1B"/>
<path d="M415 199C415 181.327 429.327 167 447 167H812C826.912 167 839 179.088 839 194V199H415Z" fill="#C6710E"/>
<path d="M423 195C423 182.297 433.297 172 446 172H808C820.703 172 831 182.297 831 195H423Z" fill="#DF9D1B"/>
<path d="M446.062 188H443.145V178.545H446.192C447.109 178.545 447.894 178.735 448.546 179.113C449.199 179.489 449.699 180.029 450.047 180.734C450.394 181.435 450.568 182.276 450.568 183.254C450.568 184.239 450.393 185.087 450.042 185.798C449.691 186.506 449.18 187.051 448.509 187.432C447.838 187.811 447.023 188 446.062 188ZM444.29 186.984H445.989C446.77 186.984 447.418 186.834 447.932 186.532C448.446 186.23 448.829 185.801 449.082 185.244C449.334 184.687 449.46 184.024 449.46 183.254C449.46 182.491 449.336 181.834 449.086 181.283C448.837 180.729 448.465 180.304 447.969 180.009C447.474 179.71 446.857 179.561 446.118 179.561H444.29V186.984ZM484.989 188V178.545H490.695V179.561H486.134V182.756H490.399V183.771H486.134V186.984H490.768V188H484.989ZM525.646 178.545L528.453 186.504H528.564L531.37 178.545H532.571L529.099 188H527.917L524.446 178.545H525.646ZM566.543 188V178.545H572.249V179.561H567.688V182.756H571.954V183.771H567.688V186.984H572.323V188H566.543ZM606.813 188V178.545H607.958V186.984H612.353V188H606.813ZM654.234 183.273C654.234 184.27 654.054 185.132 653.694 185.858C653.334 186.584 652.84 187.144 652.212 187.538C651.585 187.932 650.868 188.129 650.061 188.129C649.255 188.129 648.538 187.932 647.91 187.538C647.282 187.144 646.788 186.584 646.428 185.858C646.068 185.132 645.888 184.27 645.888 183.273C645.888 182.276 646.068 181.414 646.428 180.688C646.788 179.961 647.282 179.401 647.91 179.007C648.538 178.613 649.255 178.416 650.061 178.416C650.868 178.416 651.585 178.613 652.212 179.007C652.84 179.401 653.334 179.961 653.694 180.688C654.054 181.414 654.234 182.276 654.234 183.273ZM653.127 183.273C653.127 182.454 652.99 181.763 652.716 181.2C652.445 180.637 652.077 180.21 651.612 179.921C651.151 179.632 650.634 179.487 650.061 179.487C649.489 179.487 648.97 179.632 648.505 179.921C648.044 180.21 647.676 180.637 647.402 181.2C647.131 181.763 646.996 182.454 646.996 183.273C646.996 184.091 647.131 184.782 647.402 185.346C647.676 185.909 648.044 186.335 648.505 186.624C648.97 186.914 649.489 187.058 650.061 187.058C650.634 187.058 651.151 186.914 651.612 186.624C652.077 186.335 652.445 185.909 652.716 185.346C652.99 184.782 653.127 184.091 653.127 183.273ZM688.66 188V178.545H691.854C692.596 178.545 693.202 178.679 693.673 178.947C694.147 179.212 694.498 179.57 694.726 180.023C694.953 180.475 695.067 180.98 695.067 181.537C695.067 182.094 694.953 182.6 694.726 183.056C694.501 183.511 694.153 183.874 693.682 184.145C693.211 184.413 692.608 184.547 691.873 184.547H689.583V183.531H691.836C692.343 183.531 692.751 183.444 693.059 183.268C693.367 183.093 693.59 182.856 693.728 182.557C693.87 182.256 693.941 181.915 693.941 181.537C693.941 181.158 693.87 180.82 693.728 180.521C693.59 180.223 693.365 179.989 693.054 179.82C692.744 179.647 692.331 179.561 691.817 179.561H689.804V188H688.66ZM729.411 188V178.545H735.117V179.561H730.556V182.756H734.822V183.771H730.556V186.984H735.191V188H729.411ZM769.681 188V178.545H772.876C773.614 178.545 774.221 178.672 774.695 178.924C775.168 179.173 775.519 179.516 775.747 179.953C775.975 180.391 776.089 180.888 776.089 181.445C776.089 182.002 775.975 182.496 775.747 182.926C775.519 183.357 775.17 183.696 774.699 183.942C774.228 184.185 773.627 184.307 772.894 184.307H770.309V183.273H772.857C773.362 183.273 773.768 183.199 774.076 183.051C774.387 182.903 774.611 182.694 774.75 182.423C774.891 182.149 774.962 181.823 774.962 181.445C774.962 181.066 774.891 180.735 774.75 180.452C774.608 180.169 774.382 179.95 774.071 179.797C773.76 179.64 773.35 179.561 772.839 179.561H770.826V188H769.681ZM774.131 183.753L776.458 188H775.128L772.839 183.753H774.131ZM815.667 180.909C815.612 180.441 815.387 180.078 814.993 179.82C814.599 179.561 814.116 179.432 813.543 179.432C813.125 179.432 812.759 179.5 812.445 179.635C812.134 179.77 811.891 179.957 811.715 180.194C811.543 180.431 811.457 180.7 811.457 181.001C811.457 181.254 811.517 181.471 811.637 181.652C811.76 181.831 811.917 181.98 812.108 182.1C812.298 182.217 812.498 182.314 812.708 182.391C812.917 182.465 813.109 182.525 813.285 182.571L814.245 182.83C814.491 182.894 814.765 182.983 815.067 183.097C815.371 183.211 815.662 183.367 815.939 183.564C816.219 183.757 816.45 184.007 816.632 184.311C816.813 184.616 816.904 184.99 816.904 185.433C816.904 185.944 816.77 186.406 816.502 186.818C816.238 187.231 815.85 187.558 815.339 187.801C814.831 188.045 814.214 188.166 813.488 188.166C812.811 188.166 812.225 188.057 811.729 187.838C811.237 187.62 810.849 187.315 810.566 186.924C810.286 186.533 810.127 186.08 810.09 185.562H811.272C811.303 185.92 811.423 186.215 811.632 186.449C811.844 186.68 812.112 186.852 812.435 186.966C812.762 187.077 813.112 187.132 813.488 187.132C813.925 187.132 814.317 187.061 814.665 186.92C815.013 186.775 815.288 186.575 815.491 186.32C815.695 186.061 815.796 185.759 815.796 185.415C815.796 185.101 815.708 184.845 815.533 184.648C815.358 184.451 815.127 184.291 814.841 184.168C814.554 184.045 814.245 183.937 813.913 183.845L812.749 183.513C812.011 183.3 811.426 182.997 810.995 182.603C810.564 182.209 810.349 181.694 810.349 181.057C810.349 180.527 810.492 180.066 810.778 179.672C811.067 179.275 811.455 178.967 811.941 178.749C812.431 178.527 812.977 178.416 813.58 178.416C814.19 178.416 814.731 178.525 815.205 178.744C815.679 178.959 816.055 179.255 816.332 179.63C816.612 180.006 816.759 180.432 816.775 180.909H815.667Z" fill="#F5DEB3"/>
<path d="M453.447 101.535C448.826 100.886 445.734 98.9366 444.171 95.6875C443.082 93.8515 442.724 91.6131 443.095 88.9724C443.837 83.6909 447.081 79.7709 452.826 77.2123C456.075 75.6493 459.515 75.1229 463.146 75.6332C467.768 76.2827 470.86 78.232 472.423 81.4811C473.511 83.3172 473.87 85.5555 473.499 88.1962C472.757 93.4777 469.513 97.3977 463.767 99.9563C460.518 101.519 457.078 102.046 453.447 101.535ZM165.836 430.711C153.292 428.948 141.662 424.284 130.944 416.719C119.849 409.437 112.331 399.461 108.389 386.789C107.012 382.219 106.341 377.412 106.377 372.368C106.366 367.654 106.686 362.987 107.335 358.365L108.1 352.919C108.472 350.278 109.15 347.849 110.135 345.631C111.073 343.743 112.863 342.985 115.503 343.356C116.494 343.495 116.942 343.895 116.85 344.555C116.571 346.536 116.128 348.493 115.519 350.427C114.581 352.315 113.949 354.414 113.625 356.725C111.491 371.909 114.818 384.158 123.608 393.472C132.067 402.739 143.558 408.394 158.082 410.435C164.024 411.27 170.223 411.468 176.681 411.029C183.138 410.59 189.335 409.61 195.271 408.088C217.319 402.098 237.26 391.941 255.094 377.617C272.551 363.576 288.494 347.135 302.924 328.293C317.353 309.452 330.673 290.117 342.885 270.29C353.405 252.919 362.442 236.517 369.997 221.085C377.552 205.653 383.557 192.864 388.012 182.719C392.797 172.62 395.755 167.145 396.884 166.294C402.908 161.754 410.443 158.437 419.489 156.343C428.582 153.918 435.604 153.053 440.555 153.749C444.516 154.306 446.357 155.575 446.079 157.555C445.708 160.196 444.037 161.307 441.066 160.89C437.435 160.38 433.995 160.906 430.746 162.469C427.543 163.702 424.931 165.523 422.909 167.932C419.336 171.805 413.954 178.959 406.765 189.394C399.907 199.874 392.133 212.078 383.443 226.004C375.13 239.647 366.771 253.619 358.365 267.922C350.006 281.894 342.304 294.781 335.26 306.582C324.694 324.284 313.206 341.352 300.799 357.785C288.014 374.501 273.693 388.983 257.834 401.228C241.929 413.803 223.989 422.895 204.015 428.503C192.096 431.877 179.369 432.613 165.836 430.711Z" fill="url(#paint1_linear_69_13)"/>
<path d="M165 172C165 169.239 167.239 167 170 167H386C386 184.673 371.673 199 354 199H178C170.82 199 165 193.18 165 186V172Z" fill="#C6710E"/>
<g clip-path="url(#clip1_69_13)">
<path d="M170 174C170 172.343 171.343 171 173 171H380C380 184.255 369.255 195 356 195H179C174.029 195 170 190.971 170 186V174Z" fill="#DF9D1B"/>
<path d="M179.628 178.561V177.545H186.719V178.561H183.746V187H182.601V178.561H179.628ZM213.769 187H212.569L216.04 177.545H217.222L220.694 187H219.493L216.668 179.041H216.594L213.769 187ZM214.212 183.307H219.05V184.322H214.212V183.307ZM251.786 177.545H252.931V184.304C252.931 184.907 252.82 185.42 252.598 185.841C252.377 186.263 252.064 186.583 251.661 186.801C251.258 187.02 250.782 187.129 250.235 187.129C249.718 187.129 249.257 187.035 248.854 186.848C248.451 186.657 248.134 186.386 247.903 186.035C247.672 185.684 247.557 185.267 247.557 184.784H248.683C248.683 185.052 248.75 185.286 248.882 185.486C249.017 185.683 249.202 185.837 249.436 185.947C249.67 186.058 249.936 186.114 250.235 186.114C250.564 186.114 250.844 186.044 251.075 185.906C251.306 185.767 251.481 185.564 251.601 185.297C251.724 185.026 251.786 184.695 251.786 184.304V177.545ZM281.225 177.545H282.591L285.805 185.393H285.915L289.128 177.545H290.495V187H289.424V179.817H289.331L286.377 187H285.343L282.388 179.817H282.296V187H281.225V177.545ZM319.178 187H317.978L321.449 177.545H322.631L326.103 187H324.903L322.077 179.041H322.003L319.178 187ZM319.621 183.307H324.459V184.322H319.621V183.307ZM361.073 177.545V187H359.965L354.813 179.577H354.72V187H353.576V177.545H354.684L359.854 184.987H359.946V177.545H361.073Z" fill="#F5DEB3"/>
</g>
<path d="M464.444 86.1583C464.231 86.0803 464.016 86.0081 463.8 85.9416C463.837 85.7831 463.87 85.6266 463.9 85.4727C464.387 82.9467 464.068 80.9118 462.98 80.2417C461.937 79.5994 460.231 80.2692 458.507 81.8706C458.337 82.0287 458.171 82.1913 458.009 82.3584C457.901 82.2473 457.79 82.1384 457.678 82.0316C455.872 80.3194 454.061 79.5977 452.974 80.2697C451.932 80.914 451.623 82.827 452.062 85.221C452.106 85.4581 452.155 85.694 452.21 85.9284C451.954 86.0061 451.706 86.0889 451.47 86.177C449.352 86.9653 448 88.2006 448 89.482C448 90.8055 449.452 92.1329 451.657 92.9378C451.836 93.0028 452.016 93.063 452.198 93.1184C452.139 93.3709 452.087 93.6251 452.041 93.8807C451.623 96.2331 451.949 98.1009 452.989 98.7412C454.063 99.4023 455.865 98.7228 457.62 97.0849C457.762 96.9517 457.901 96.8148 458.037 96.6742C458.212 96.8551 458.393 97.0307 458.577 97.2009C460.277 98.7627 461.956 99.3933 462.995 98.7513C464.067 98.0882 464.416 96.0817 463.963 93.6404C463.928 93.4492 463.888 93.2589 463.844 93.0697C463.97 93.0296 464.094 92.9884 464.215 92.9456C466.508 92.1345 468 90.8231 468 89.482C468 88.196 466.604 86.9523 464.444 86.1583ZM463.947 92.0797C463.837 92.1183 463.725 92.1556 463.611 92.1919C463.358 91.3362 463.016 90.4265 462.598 89.4864C462.997 88.5688 463.325 87.6707 463.571 86.8206C463.776 86.8839 463.975 86.9505 464.166 87.0208C466.017 87.7012 467.146 88.707 467.146 89.482C467.146 90.3075 465.926 91.3792 463.947 92.0797ZM463.125 93.8176C463.325 94.8971 463.354 95.8731 463.221 96.6361C463.102 97.3217 462.863 97.7788 462.567 97.9619C461.936 98.3514 460.588 97.8451 459.135 96.5094C458.963 96.3512 458.795 96.1879 458.632 96.0197C459.195 95.3616 459.759 94.5966 460.308 93.7469C461.275 93.6553 462.189 93.5055 463.017 93.301C463.057 93.4723 463.093 93.6445 463.125 93.8176ZM454.818 97.8945C454.203 98.1267 453.712 98.1334 453.416 97.9508C452.785 97.5624 452.523 96.0626 452.88 94.0509C452.923 93.8131 452.972 93.5767 453.026 93.3419C453.846 93.5354 454.752 93.6746 455.721 93.7585C456.275 94.5899 456.854 95.3541 457.438 96.0233C457.314 96.1515 457.187 96.2765 457.057 96.398C456.281 97.1222 455.504 97.6361 454.818 97.8945ZM451.934 92.0746C450.958 91.7186 450.153 91.2561 449.601 90.7513C449.105 90.2978 448.854 89.8474 448.854 89.482C448.854 88.7044 449.94 87.7125 451.751 87.0384C451.971 86.9567 452.201 86.8795 452.439 86.8071C452.69 87.6763 453.018 88.5852 453.414 89.5042C453.013 90.4368 452.68 91.3602 452.427 92.2397C452.261 92.189 452.097 92.1339 451.934 92.0746ZM452.901 85.0457C452.525 82.9947 452.774 81.4475 453.403 81.0592C454.072 80.6456 455.551 81.2353 457.111 82.7138C457.212 82.8105 457.312 82.9091 457.411 83.0096C456.83 83.6758 456.255 84.4344 455.707 85.2609C454.766 85.354 453.866 85.5034 453.038 85.7037C452.987 85.4857 452.941 85.2662 452.901 85.0457ZM461.528 87.3205C461.332 86.9598 461.129 86.6038 460.92 86.2525C461.558 86.3386 462.169 86.453 462.743 86.5928C462.571 87.1827 462.356 87.7995 462.103 88.4318C461.918 88.0573 461.726 87.6868 461.528 87.3205ZM458.01 83.6616C458.404 84.1175 458.798 84.6265 459.187 85.1787C458.399 85.139 457.61 85.1388 456.823 85.1782C457.211 84.6311 457.609 84.1228 458.01 83.6616ZM454.469 87.3266C454.273 87.69 454.084 88.0582 453.904 88.4309C453.656 87.8009 453.443 87.1813 453.269 86.5831C453.839 86.4467 454.448 86.3353 455.082 86.2507C454.87 86.6042 454.665 86.963 454.469 87.3266ZM455.1 92.7782C454.445 92.7001 453.828 92.5945 453.257 92.4618C453.434 91.8529 453.651 91.2201 453.905 90.5766C454.086 90.9496 454.275 91.318 454.472 91.6815C454.675 92.0552 454.885 92.4213 455.1 92.7782ZM458.033 95.3667C457.628 94.9002 457.224 94.3841 456.83 93.829C457.213 93.8451 457.603 93.8532 458 93.8532C458.408 93.8532 458.811 93.8435 459.207 93.8246C458.818 94.3897 458.425 94.9066 458.033 95.3667ZM462.111 90.5437C462.379 91.1944 462.604 91.8237 462.783 92.4223C462.203 92.5636 461.577 92.6774 460.917 92.7619C461.128 92.404 461.333 92.0418 461.531 91.6753C461.732 91.3027 461.926 90.9254 462.111 90.5437ZM460.791 91.2195C460.488 91.7814 460.168 92.3327 459.832 92.8724C459.222 92.9185 458.611 92.9414 458 92.9411C457.378 92.9411 456.772 92.9204 456.189 92.88C455.844 92.3415 455.518 91.7893 455.212 91.2245C454.907 90.6626 454.622 90.0887 454.358 89.5038C454.622 88.9188 454.905 88.3445 455.209 87.7823C455.513 87.2199 455.836 86.6701 456.179 86.1339C456.774 86.0859 457.384 86.0609 458 86.0609C458.619 86.0609 459.23 86.0861 459.825 86.1345C460.164 86.6699 460.485 87.2179 460.788 87.7774C461.093 88.3384 461.38 88.9099 461.65 89.4909C461.383 90.0778 461.097 90.6543 460.791 91.2195ZM462.554 81.032C463.223 81.4445 463.484 83.1076 463.063 85.2886C463.036 85.4277 463.006 85.5694 462.973 85.7132C462.143 85.5086 461.242 85.3565 460.299 85.262C459.749 84.4264 459.18 83.6667 458.608 83.0091C458.758 82.8549 458.911 82.7047 459.068 82.5586C460.545 81.1866 461.925 80.6449 462.554 81.032ZM458 87.5751C458.986 87.5751 459.786 88.4289 459.786 89.482C459.786 90.5352 458.986 91.389 458 91.389C457.014 91.389 456.214 90.5352 456.214 89.482C456.214 88.4289 457.014 87.5751 458 87.5751Z" fill="#00D8FF"/>
</g>
<defs>
<linearGradient id="paint0_linear_69_13" x1="372" y1="277.5" x2="834.5" y2="357" gradientUnits="userSpaceOnUse">
<stop stop-color="#EABD67"/>
<stop stop-color="#D08730"/>
<stop stop-color="#F5DEB3"/>
<stop stop-color="#CD8126"/>
<stop stop-color="#C6710E"/>
<stop stop-color="#DF9D1B"/>
<stop stop-color="#00D8FE"/>
<stop stop-color="#00D8FF"/>
<stop offset="0.0001" stop-color="#DF9D1B"/>
<stop offset="0.0002" stop-color="#DF9D1B"/>
<stop offset="0.0003" stop-color="#DF9D1B"/>
<stop offset="0.0004" stop-color="#7F9664"/>
<stop offset="0.0005" stop-color="#B8781F"/>
<stop offset="0.0006" stop-color="#C6710E"/>
<stop offset="0.0007" stop-color="#C6710E"/>
<stop offset="0.0008" stop-color="#DF9D1B"/>
<stop offset="0.0009" stop-color="#D79639"/>
<stop offset="0.001" stop-color="#F5DEB3"/>
<stop offset="0.0011" stop-color="#C6710E"/>
<stop offset="0.683" stop-color="#E5AE43"/>
<stop offset="0.833" stop-color="#E5AE43"/>
<stop offset="1" stop-color="#F5DEB3"/>
</linearGradient>
<linearGradient id="paint1_linear_69_13" x1="190" y1="78" x2="185" y2="440" gradientUnits="userSpaceOnUse">
<stop stop-color="#C6710E"/>
<stop offset="1" stop-color="#DF9D1B"/>
</linearGradient>
<clipPath id="clip0_69_13">
<rect width="818" height="397" fill="white" transform="translate(68 59)"/>
</clipPath>
<clipPath id="clip1_69_13">
<path d="M170 174C170 172.343 171.343 171 173 171H380C380 184.255 369.255 195 356 195H179C174.029 195 170 190.971 170 186V174Z" fill="white"/>
</clipPath>
</defs>
</svg>
